<svg width="20" height="20" viewBox="0 0 20 20" fill="none" xmlns="http://www.w3.org/2000/svg">
<path d="M14.245 7.0353H15.4571C15.7786 7.0353 16.0869 7.16017 16.3142 7.38243C16.5416 7.6047 16.6693 7.90615 16.6693 8.22048V17.702C16.6693 18.0163 16.5416 18.3178 16.3142 18.54C16.0869 18.7623 15.7786 18.8872 15.4571 18.8872H4.54806C4.22658 18.8872 3.91828 18.7623 3.69096 18.54C3.46364 18.3178 3.33594 18.0163 3.33594 17.702V8.22048C3.33594 7.90615 3.46364 7.6047 3.69096 7.38243C3.91828 7.16017 4.22658 7.0353 4.54806 7.0353H5.76018M10.0026 1.10938V9.40567M10.0026 1.10938L6.9723 4.07234M10.0026 1.10938L13.0329 4.07234" stroke="black" stroke-width="1.25" stroke-linecap="round" stroke-linejoin="round"/>
</svg>
