<svg width="12" height="12" viewBox="0 0 12 12" fill="none" xmlns="http://www.w3.org/2000/svg">
<g clip-path="url(#clip0_21549_3183)">
<path d="M6 0C9.3138 0 12 2.6862 12 6C12 9.3138 9.3138 12 6 12C2.6862 12 0 9.3138 0 6C0 2.6862 2.6862 0 6 0ZM6 0.837C4.63069 0.837 3.31746 1.38096 2.34921 2.34921C1.38096 3.31746 0.837 4.63069 0.837 6C0.837 7.36931 1.38096 8.68254 2.34921 9.65079C3.31746 10.619 4.63069 11.163 6 11.163C7.36931 11.163 8.68254 10.619 9.65079 9.65079C10.619 8.68254 11.163 7.36931 11.163 6C11.163 4.63069 10.619 3.31746 9.65079 2.34921C8.68254 1.38096 7.36931 0.837 6 0.837ZM5.913 4.326C6.144 4.326 6.3312 4.5138 6.3312 4.7448V9.2796C6.3271 9.38785 6.28122 9.4903 6.20318 9.56544C6.12514 9.64058 6.02103 9.68255 5.9127 9.68255C5.80437 9.68255 5.70026 9.64058 5.62222 9.56544C5.54419 9.4903 5.4983 9.38785 5.4942 9.2796V4.7442C5.4942 4.5132 5.6814 4.326 5.913 4.326ZM5.9298 2.6514C6.07779 2.6514 6.21972 2.71019 6.32437 2.81483C6.42901 2.91948 6.4878 3.06141 6.4878 3.2094C6.4878 3.35739 6.42901 3.49932 6.32437 3.60397C6.21972 3.70861 6.07779 3.7674 5.9298 3.7674C5.78181 3.7674 5.63988 3.70861 5.53523 3.60397C5.43059 3.49932 5.3718 3.35739 5.3718 3.2094C5.3718 3.06141 5.43059 2.91948 5.53523 2.81483C5.63988 2.71019 5.78181 2.6514 5.9298 2.6514Z" fill="#8C9094"/>
</g>
<defs>
<clipPath id="clip0_21549_3183">
<rect width="12" height="12" fill="white"/>
</clipPath>
</defs>
</svg>
